<svg width="94" height="33" viewBox="0 0 94 33" fill="none" xmlns="http://www.w3.org/2000/svg">
<g filter="url(#filter0_d_208_2)">
<path d="M9 4.5H85C87.4853 4.5 89.5 6.51472 89.5 9V24C89.5 26.4853 87.4853 28.5 85 28.5H9C6.51472 28.5 4.5 26.4853 4.5 24V9C4.5 6.51472 6.51472 4.5 9 4.5Z" fill="#F7F5CF" stroke="#C8A70E"/>
<path d="M78.2728 10.9829L80.0171 12.7263L78.2728 10.9829ZM79.3945 9.44703L74.6781 14.1634C74.4344 14.4067 74.2682 14.7168 74.2004 15.0545L73.7648 17.2352L75.9455 16.7987C76.2832 16.7312 76.5928 16.5656 76.8366 16.3219L81.553 11.6055C81.6947 11.4638 81.8071 11.2955 81.8838 11.1103C81.9605 10.9252 82 10.7267 82 10.5263C82 10.3258 81.9605 10.1274 81.8838 9.94219C81.8071 9.75702 81.6947 9.58876 81.553 9.44703C81.4112 9.30531 81.243 9.19288 81.0578 9.11618C80.8726 9.03948 80.6742 9 80.4737 9C80.2733 9 80.0748 9.03948 79.8896 9.11618C79.7045 9.19288 79.5362 9.30531 79.3945 9.44703V9.44703Z" stroke="#C8A70E" stroke-width="2" stroke-linecap="round" stroke-linejoin="round"/>
<path d="M80.3531 18.8822V21.3528C80.3531 21.7897 80.1796 22.2086 79.8707 22.5175C79.5618 22.8264 79.1428 22.9999 78.706 22.9999H69.6471C69.2102 22.9999 68.7913 22.8264 68.4824 22.5175C68.1735 22.2086 68 21.7897 68 21.3528V12.2938C68 11.857 68.1735 11.438 68.4824 11.1292C68.7913 10.8203 69.2102 10.6467 69.6471 10.6467H72.1177" stroke="#C8A70E" stroke-width="2" stroke-linecap="round" stroke-linejoin="round"/>
<path d="M17.4463 21H13.0742V13.1475H17.4463V13.9531H13.9873V16.4937H17.2476V17.2886H13.9873V20.1943H17.4463V21ZM25.4224 16.9985C25.4224 17.883 25.2612 18.6224 24.939 19.2168C24.6167 19.8076 24.1494 20.2534 23.5371 20.5542C22.9284 20.8514 22.189 21 21.3188 21H19.1865V13.1475H21.5552C22.3537 13.1475 23.0412 13.2943 23.6177 13.5879C24.1942 13.8779 24.6382 14.3094 24.9497 14.8823C25.2648 15.4517 25.4224 16.1571 25.4224 16.9985ZM24.4609 17.0308C24.4609 16.3254 24.3428 15.7435 24.1064 15.2852C23.8737 14.8268 23.5299 14.4867 23.0752 14.2646C22.624 14.0391 22.0708 13.9263 21.4155 13.9263H20.0996V20.2158H21.2114C22.2928 20.2158 23.1038 19.9491 23.6445 19.4155C24.1888 18.882 24.4609 18.0871 24.4609 17.0308ZM27.168 21V13.1475H28.0811V21H27.168ZM32.6519 21H31.7334V13.9531H29.2627V13.1475H35.1118V13.9531H32.6519V21ZM41.2241 21L40.2573 18.5078H37.1099L36.1484 21H35.2246L38.2969 13.1152H39.1187L42.1694 21H41.2241ZM39.9834 17.6968L39.0649 15.2207C39.0435 15.1562 39.0076 15.0506 38.9575 14.9038C38.911 14.757 38.8626 14.6048 38.8125 14.4473C38.7624 14.2897 38.7212 14.1626 38.689 14.0659C38.6532 14.2127 38.6138 14.3595 38.5708 14.5063C38.5314 14.6496 38.492 14.7839 38.4526 14.9092C38.4132 15.0309 38.3792 15.1348 38.3506 15.2207L37.416 17.6968H39.9834ZM45.3813 13.1475C46.0259 13.1475 46.5576 13.228 46.9766 13.3892C47.3991 13.5467 47.7142 13.7884 47.9219 14.1143C48.1296 14.4401 48.2334 14.8555 48.2334 15.3604C48.2334 15.7757 48.1582 16.123 48.0078 16.4023C47.8574 16.6781 47.6605 16.9019 47.417 17.0737C47.1735 17.2456 46.9139 17.3781 46.6382 17.4712L48.792 21H47.7285L45.8057 17.7236H44.1729V21H43.2598V13.1475H45.3813ZM45.3276 13.937H44.1729V16.9502H45.4189C46.0599 16.9502 46.5308 16.8195 46.8315 16.5581C47.1359 16.2967 47.2881 15.9118 47.2881 15.4033C47.2881 14.8698 47.127 14.492 46.8047 14.27C46.486 14.048 45.9937 13.937 45.3276 13.937Z" fill="#C8A70E"/>
</g>
<defs>
<filter id="filter0_d_208_2" x="0" y="0" width="94" height="33" filterUnits="userSpaceOnUse" color-interpolation-filters="sRGB">
<feFlood flood-opacity="0" result="BackgroundImageFix"/>
<feColorMatrix in="SourceAlpha" type="matrix" values="0 0 0 0 0 0 0 0 0 0 0 0 0 0 0 0 0 0 127 0" result="hardAlpha"/>
<feOffset/>
<feGaussianBlur stdDeviation="2"/>
<feComposite in2="hardAlpha" operator="out"/>
<feColorMatrix type="matrix" values="0 0 0 0 0 0 0 0 0 0 0 0 0 0 0 0 0 0 0.25 0"/>
<feBlend mode="normal" in2="BackgroundImageFix" result="effect1_dropShadow_208_2"/>
<feBlend mode="normal" in="SourceGraphic" in2="effect1_dropShadow_208_2" result="shape"/>
</filter>
</defs>
</svg>
