<svg width="94" height="33" viewBox="0 0 94 33" fill="none" xmlns="http://www.w3.org/2000/svg">
<g filter="url(#filter0_d_208_2)">
<path d="M4 9C4 6.23858 6.23858 4 9 4H85C87.7614 4 90 6.23858 90 9V24C90 26.7614 87.7614 29 85 29H9C6.23858 29 4 26.7614 4 24V9Z" fill="#CDD9F9"/>
<path d="M9 4.5H85C87.4853 4.5 89.5 6.51472 89.5 9V24C89.5 26.4853 87.4853 28.5 85 28.5H9C6.51472 28.5 4.5 26.4853 4.5 24V9C4.5 6.51472 6.51472 4.5 9 4.5Z" stroke="#1C48B8"/>
</g>
<path d="M71.5556 24H82.4444C83.3023 24 84 23.3023 84 22.4444V13.8889C84.0001 13.7867 83.98 13.6856 83.9409 13.5912C83.9018 13.4968 83.8444 13.4111 83.7721 13.339L80.661 10.2279C80.5889 10.1555 80.5032 10.0981 80.4088 10.059C80.3144 10.0199 80.2133 9.99985 80.1111 10H71.5556C70.6977 10 70 10.6977 70 11.5556V22.4444C70 23.3023 70.6977 24 71.5556 24ZM79.3333 22.4444H74.6667V18.5556H79.3333V22.4444ZM77.7778 13.1111H76.2222V11.5556H77.7778V13.1111ZM71.5556 11.5556H73.1111V14.6667H79.3333V11.5556H79.7891L82.4444 14.2109L82.4452 22.4444H80.8889V18.5556C80.8889 17.6977 80.1912 17 79.3333 17H74.6667C73.8088 17 73.1111 17.6977 73.1111 18.5556V22.4444H71.5556V11.5556Z" fill="black"/>
<path d="M16.4312 16.8857H19.1758V20.6938C18.764 20.8335 18.3397 20.9373 17.9028 21.0054C17.4696 21.0734 16.9844 21.1074 16.4473 21.1074C15.6309 21.1074 14.9416 20.9445 14.3794 20.6187C13.8208 20.2928 13.3965 19.8291 13.1064 19.2275C12.8164 18.6224 12.6714 17.9045 12.6714 17.0737C12.6714 16.2609 12.8307 15.5519 13.1494 14.9468C13.4717 14.3416 13.9354 13.8726 14.5405 13.5396C15.1493 13.203 15.8797 13.0347 16.7319 13.0347C17.1688 13.0347 17.5824 13.0758 17.9727 13.1582C18.3665 13.237 18.7318 13.3498 19.0684 13.4966L18.7192 14.2915C18.4292 14.1662 18.1087 14.0588 17.7578 13.9692C17.4105 13.8797 17.0506 13.835 16.6782 13.835C16.0373 13.835 15.4876 13.9674 15.0293 14.2324C14.5745 14.4974 14.2254 14.8716 13.9819 15.355C13.742 15.8384 13.6221 16.4113 13.6221 17.0737C13.6221 17.729 13.7277 18.3001 13.939 18.7871C14.1502 19.2705 14.4797 19.6465 14.9272 19.915C15.3748 20.1836 15.9513 20.3179 16.6567 20.3179C17.0112 20.3179 17.3156 20.2982 17.5698 20.2588C17.8241 20.2158 18.055 20.1657 18.2627 20.1084V17.7021H16.4312V16.8857ZM27.0176 13.1475V18.2285C27.0176 18.7835 26.9048 19.2777 26.6792 19.7109C26.4572 20.1442 26.1206 20.4862 25.6694 20.7368C25.2183 20.9839 24.6525 21.1074 23.9722 21.1074C23.0018 21.1074 22.2624 20.8442 21.7539 20.3179C21.249 19.7915 20.9966 19.0879 20.9966 18.207V13.1475H21.915V18.2339C21.915 18.8999 22.0905 19.4137 22.4414 19.7754C22.7959 20.137 23.3241 20.3179 24.0259 20.3179C24.5057 20.3179 24.8978 20.2319 25.2021 20.0601C25.5101 19.8846 25.7375 19.6411 25.8843 19.3296C26.0347 19.0145 26.1099 18.651 26.1099 18.2393V13.1475H27.0176ZM34.0269 21L33.0601 18.5078H29.9126L28.9512 21H28.0273L31.0996 13.1152H31.9214L34.9722 21H34.0269ZM32.7861 17.6968L31.8677 15.2207C31.8462 15.1562 31.8104 15.0506 31.7603 14.9038C31.7137 14.757 31.6654 14.6048 31.6152 14.4473C31.5651 14.2897 31.5239 14.1626 31.4917 14.0659C31.4559 14.2127 31.4165 14.3595 31.3735 14.5063C31.3341 14.6496 31.2948 14.7839 31.2554 14.9092C31.216 15.0309 31.182 15.1348 31.1533 15.2207L30.2188 17.6968H32.7861ZM38.1841 13.1475C38.8286 13.1475 39.3604 13.228 39.7793 13.3892C40.2018 13.5467 40.5169 13.7884 40.7246 14.1143C40.9323 14.4401 41.0361 14.8555 41.0361 15.3604C41.0361 15.7757 40.9609 16.123 40.8105 16.4023C40.6602 16.6781 40.4632 16.9019 40.2197 17.0737C39.9762 17.2456 39.7166 17.3781 39.4409 17.4712L41.5947 21H40.5312L38.6084 17.7236H36.9756V21H36.0625V13.1475H38.1841ZM38.1304 13.937H36.9756V16.9502H38.2217C38.8626 16.9502 39.3335 16.8195 39.6343 16.5581C39.9386 16.2967 40.0908 15.9118 40.0908 15.4033C40.0908 14.8698 39.9297 14.492 39.6074 14.27C39.2887 14.048 38.7964 13.937 38.1304 13.937ZM49.0874 16.9985C49.0874 17.883 48.9263 18.6224 48.604 19.2168C48.2817 19.8076 47.8145 20.2534 47.2021 20.5542C46.5934 20.8514 45.854 21 44.9839 21H42.8516V13.1475H45.2202C46.0187 13.1475 46.7062 13.2943 47.2827 13.5879C47.8592 13.8779 48.3032 14.3094 48.6147 14.8823C48.9299 15.4517 49.0874 16.1571 49.0874 16.9985ZM48.126 17.0308C48.126 16.3254 48.0078 15.7435 47.7715 15.2852C47.5387 14.8268 47.195 14.4867 46.7402 14.2646C46.2891 14.0391 45.7358 13.9263 45.0806 13.9263H43.7646V20.2158H44.8765C45.9578 20.2158 46.7689 19.9491 47.3096 19.4155C47.8538 18.882 48.126 18.0871 48.126 17.0308ZM55.7583 21L54.7915 18.5078H51.644L50.6826 21H49.7588L52.8311 13.1152H53.6528L56.7036 21H55.7583ZM54.5176 17.6968L53.5991 15.2207C53.5776 15.1562 53.5418 15.0506 53.4917 14.9038C53.4451 14.757 53.3968 14.6048 53.3467 14.4473C53.2965 14.2897 53.2554 14.1626 53.2231 14.0659C53.1873 14.2127 53.1479 14.3595 53.105 14.5063C53.0656 14.6496 53.0262 14.7839 52.9868 14.9092C52.9474 15.0309 52.9134 15.1348 52.8848 15.2207L51.9502 17.6968H54.5176ZM59.9155 13.1475C60.5601 13.1475 61.0918 13.228 61.5107 13.3892C61.9333 13.5467 62.2484 13.7884 62.4561 14.1143C62.6637 14.4401 62.7676 14.8555 62.7676 15.3604C62.7676 15.7757 62.6924 16.123 62.542 16.4023C62.3916 16.6781 62.1947 16.9019 61.9512 17.0737C61.7077 17.2456 61.4481 17.3781 61.1724 17.4712L63.3262 21H62.2627L60.3398 17.7236H58.707V21H57.7939V13.1475H59.9155ZM59.8618 13.937H58.707V16.9502H59.9531C60.5941 16.9502 61.0649 16.8195 61.3657 16.5581C61.6701 16.2967 61.8223 15.9118 61.8223 15.4033C61.8223 14.8698 61.6611 14.492 61.3389 14.27C61.0202 14.048 60.5278 13.937 59.8618 13.937Z" fill="#1C48B8"/>
<defs>
<filter id="filter0_d_208_2" x="0" y="0" width="94" height="33" filterUnits="userSpaceOnUse" color-interpolation-filters="sRGB">
<feFlood flood-opacity="0" result="BackgroundImageFix"/>
<feColorMatrix in="SourceAlpha" type="matrix" values="0 0 0 0 0 0 0 0 0 0 0 0 0 0 0 0 0 0 127 0" result="hardAlpha"/>
<feOffset/>
<feGaussianBlur stdDeviation="2"/>
<feComposite in2="hardAlpha" operator="out"/>
<feColorMatrix type="matrix" values="0 0 0 0 0 0 0 0 0 0 0 0 0 0 0 0 0 0 0.25 0"/>
<feBlend mode="normal" in2="BackgroundImageFix" result="effect1_dropShadow_208_2"/>
<feBlend mode="normal" in="SourceGraphic" in2="effect1_dropShadow_208_2" result="shape"/>
</filter>
</defs>
</svg>
