<svg width="17" height="17" viewBox="0 0 17 17" fill="none" xmlns="http://www.w3.org/2000/svg">
<path d="M12.0065 3.12457L13.8753 4.99253L12.0065 3.12457ZM13.2083 1.47897L8.15504 6.53225C7.89394 6.79298 7.71587 7.12518 7.64328 7.48696L7.17651 9.82345L9.51298 9.3558C9.87475 9.28345 10.2065 9.10609 10.4677 8.84492L15.5209 3.79164C15.6728 3.63978 15.7932 3.45951 15.8754 3.26111C15.9576 3.0627 15.9999 2.85005 15.9999 2.6353C15.9999 2.42055 15.9576 2.2079 15.8754 2.0095C15.7932 1.8111 15.6728 1.63082 15.5209 1.47897C15.3691 1.32712 15.1888 1.20666 14.9904 1.12448C14.792 1.0423 14.5793 1 14.3646 1C14.1498 1 13.9372 1.0423 13.7388 1.12448C13.5404 1.20666 13.3601 1.32712 13.2083 1.47897V1.47897Z" stroke="#F0CD2C" stroke-width="2" stroke-linecap="round" stroke-linejoin="round"/>
<path d="M14.2353 11.5883V14.2353C14.2353 14.7034 14.0494 15.1522 13.7184 15.4832C13.3875 15.8141 12.9386 16.0001 12.4706 16.0001H2.76471C2.29668 16.0001 1.84782 15.8141 1.51687 15.4832C1.18592 15.1522 1 14.7034 1 14.2353V4.52937C1 4.06134 1.18592 3.61247 1.51687 3.28152C1.84782 2.95057 2.29668 2.76465 2.76471 2.76465H5.41176" stroke="#F0CD2C" stroke-width="2" stroke-linecap="round" stroke-linejoin="round"/>
</svg>
