<svg width="15" height="15" viewBox="0 0 15 15" fill="none" xmlns="http://www.w3.org/2000/svg">
<path d="M1.66667 15H13.3333C14.2525 15 15 14.2525 15 13.3333V4.16667C15.0001 4.05722 14.9786 3.94883 14.9367 3.84772C14.8948 3.74661 14.8333 3.65478 14.7558 3.5775L11.4225 0.244167C11.3452 0.166632 11.2534 0.105142 11.1523 0.0632378C11.0512 0.0213334 10.9428 -0.000157874 10.8333 8.73061e-07H1.66667C0.7475 8.73061e-07 0 0.747501 0 1.66667V13.3333C0 14.2525 0.7475 15 1.66667 15ZM10 13.3333H5V9.16667H10V13.3333ZM8.33333 3.33333H6.66667V1.66667H8.33333V3.33333ZM1.66667 1.66667H3.33333V5H10V1.66667H10.4883L13.3333 4.51167L13.3342 13.3333H11.6667V9.16667C11.6667 8.2475 10.9192 7.5 10 7.5H5C4.08083 7.5 3.33333 8.2475 3.33333 9.16667V13.3333H1.66667V1.66667Z" fill="black"/>
</svg>
